<?xml version="1.0" encoding="UTF-8" standalone="no"?>
<svg
   xmlns:dc="http://purl.org/dc/elements/1.1/"
   xmlns:cc="http://creativecommons.org/ns#"
   xmlns:rdf="http://www.w3.org/1999/02/22-rdf-syntax-ns#"
   xmlns:svg="http://www.w3.org/2000/svg"
   xmlns="http://www.w3.org/2000/svg"
   id="svg24673"
   version="1.1"
   viewBox="0 0 10.114101 23.235943"
   height="23.235943mm"
   width="10.114101mm">
  <defs
     id="defs24667" />
  <metadata
     id="metadata24670">
    <rdf:RDF>
      <cc:Work
         rdf:about="">
        <dc:format>image/svg+xml</dc:format>
        <dc:type
           rdf:resource="http://purl.org/dc/dcmitype/StillImage" />
        <dc:title></dc:title>
      </cc:Work>
    </rdf:RDF>
  </metadata>
  <g
     transform="translate(-112.10185,-126.79403)"
     id="layer1">
    <g
       transform="rotate(-17.420474,-358.00486,330.61278)"
       id="g24665">
      <path
         d="m 153.69063,282.22165 c -0.41487,0 -0.75107,0.17514 -0.75107,0.392 v 18.83507 c 0,0.21613 0.3362,0.39127 0.75107,0.39127 0.41486,0 0.75106,-0.17514 0.75106,-0.39127 v -18.83507 c 0,-0.21686 -0.3362,-0.392 -0.75106,-0.392"
         style="fill:#df4f43;fill-opacity:1;fill-rule:nonzero;stroke:none;stroke-width:0.02546231"
         id="path64-8" />
      <path
         d="m 153.69063,277.70998 c 1.79705,0 3.25367,1.45662 3.25367,3.25367 0,1.79669 -1.45662,3.25331 -3.25367,3.25331 -1.79705,0 -3.25367,-1.45662 -3.25367,-3.25331 0,-1.79705 1.45662,-3.25367 3.25367,-3.25367"
         style="fill:#252c38;fill-opacity:1;fill-rule:nonzero;stroke:none;stroke-width:0.03527778"
         id="path66-1" />
      <path
         d="m 153.69063,283.15616 c -1.23614,0 -2.34139,-0.44944 -3.08152,-1.15358 0.43427,1.28693 1.64818,2.21438 3.08152,2.21438 1.43298,0 2.64724,-0.92745 3.08116,-2.21438 -0.74119,0.70414 -1.84503,1.15358 -3.08116,1.15358"
         style="fill:#374d5e;fill-opacity:1;fill-rule:nonzero;stroke:none;stroke-width:0.03527778"
         id="path68-1" />
      <path
         d="m 150.43696,280.96365 0.004,0.084 c 0.73307,0.80468 1.91417,1.32962 3.24944,1.32962 1.33526,0 2.51495,-0.52494 3.24943,-1.32962 l 0.004,-0.084 c 0,-1.79705 -1.45662,-3.25367 -3.25367,-3.25367 -1.79705,0 -3.25367,1.45662 -3.25367,3.25367"
         style="fill:#374d5e;fill-opacity:1;fill-rule:nonzero;stroke:none;stroke-width:0.03527778"
         id="path70-3-6" />
      <path
         d="m 156.9443,280.96365 c 0,0.002 0,0.007 0,0.01 0,-0.003 0,-0.007 0,-0.01 0,-1.79705 -1.45662,-3.25367 -3.25367,-3.25367 1.79705,0 3.25367,1.45662 3.25367,3.25367 m 0,0.0123 c 0,0.003 0,0.005 0,0.008 0,-0.003 0,-0.005 0,-0.008 m 0,0.01 c 0,0.003 0,0.006 0,0.008 0,-0.003 0,-0.006 0,-0.008 m 0,0.0109 c 0,0.003 0,0.004 0,0.007 0,-10e-4 0,-0.004 0,-0.007 m 0,0.0113 c 0,10e-4 0,0.004 0,0.007 0,-0.003 0,-0.005 0,-0.007 m 0,0.0109 c 0,0.001 0,0.003 0,0.006 0,-0.003 0,-0.004 0,-0.006 m 0,0.0109 c 0,0.001 -0.001,0.004 -0.001,0.006 0,-0.001 0.001,-0.004 0.001,-0.006 m -0.001,0.0109 c 0,0 0,0.001 0,0.003 0,-0.001 0,-0.003 0,-0.003 m 0,0.0138 v 0.001 -0.001 m 0,0.008 v 0"
         style="fill:#d9bdbf;fill-opacity:1;fill-rule:nonzero;stroke:none;stroke-width:0.03527778"
         id="path72-5" />
      <path
         d="m 156.9443,280.96365 c 0,0.002 0,0.007 0,0.01 0,10e-4 0,10e-4 0,0.003 0,0.003 0,0.005 0,0.008 0,0 0,0 0,0.001 0,0.003 0,0.006 0,0.008 0,10e-4 0,10e-4 0,0.002 0,0.003 0,0.006 0,0.007 0,10e-4 0,0.003 0,0.004 0,0.001 0,0.004 0,0.007 0,0.001 0,0.003 0,0.004 0,10e-4 0,0.003 0,0.006 0,0.001 0,0.004 0,0.005 0,10e-4 -0.001,0.004 -0.001,0.006 0,10e-4 0,0.003 0,0.005 0,0 0,0.001 0,0.003 0,0.004 0,0.008 0,0.0109 v 0.001 c 0,10e-4 0,0.004 0,0.007 -0.025,0.79516 -0.33373,1.51729 -0.83115,2.06974 0.29069,-0.32526 0.51823,-0.70837 0.66005,-1.12994 -0.30586,0.28928 -0.67098,0.53622 -1.08303,0.72637 0.0318,-0.18063 0.0483,-0.36654 0.0483,-0.55704 0,-0.0811 -0.004,-0.16228 -0.01,-0.24095 0.47555,-0.22613 0.88759,-0.52775 1.21285,-0.88335 l 0.004,-0.084"
         style="fill:#20222b;fill-opacity:1;fill-rule:nonzero;stroke:none;stroke-width:0.03527778"
         id="path74-9" />
      <path
         d="m 153.63559,277.70998 c -0.001,0 -0.003,0 -0.006,0.001 0.003,-0.001 0.004,-0.001 0.006,-0.001"
         style="fill:#d9bdbf;fill-opacity:1;fill-rule:nonzero;stroke:none;stroke-width:0.03527778"
         id="path76-0-4" />
      <path
         d="m 156.77179,282.00258 c -0.14182,0.42157 -0.36936,0.80468 -0.66005,1.12994 -0.23142,0.25789 -0.50447,0.47943 -0.80751,0.65335 0.18592,-0.32244 0.31715,-0.67804 0.38453,-1.05692 0.41205,-0.19015 0.77717,-0.43709 1.08303,-0.72637"
         style="fill:#2f3b49;fill-opacity:1;fill-rule:nonzero;stroke:none;stroke-width:0.03527778"
         id="path78-4" />
      <path
         d="m 156.9443,280.96365 -0.004,0.084 c -0.32526,0.3556 -0.7373,0.65722 -1.21285,0.88335 -0.12241,-1.68522 -1.52823,-3.01237 -3.2452,-3.01237 -0.58843,0 -1.13806,0.15699 -1.6136,0.4311 0.54574,-0.95215 1.55575,-1.60267 2.72309,-1.6383 0,0 0,0 0.001,0 0.001,0 0.004,0 0.005,0 0.004,0 0.008,0 0.0123,0 0.001,0 0.003,0 0.003,0 0.003,0 0.004,0 0.006,0 10e-4,0 0.004,0 0.005,0 0.001,0 0.004,0 0.006,0 0.003,-0.001 0.004,-0.001 0.006,-0.001 0.001,0 0.002,0 0.004,0 0.003,0 0.006,0 0.008,0 0,0 0.001,0 0.003,0 0.001,0 0.004,0 0.007,0 0,0 0.001,0 0.003,0 0.003,0 0.006,0 0.008,0 0.001,0 0.001,0 0.001,0 0.003,0 0.006,0 0.008,0 10e-4,0 0.003,0 0.003,0 0.002,0 0.007,0 0.01,0 1.79705,0 3.25367,1.45662 3.25367,3.25367"
         style="fill:#2f3b49;fill-opacity:1;fill-rule:nonzero;stroke:none;stroke-width:0.03527778"
         id="path80-5" />
    </g>
  </g>
</svg>
